<svg width="1200" height="800" viewBox="0 0 1200 800" fill="none" xmlns="http://www.w3.org/2000/svg">
  <rect width="1200" height="800" fill="#111111"/>
  <rect x="120" y="112" width="960" height="560" rx="32" fill="#18181B" stroke="#27272A"/>
  <rect x="176" y="168" width="248" height="448" rx="24" fill="#27272A"/>
  <rect x="456" y="168" width="568" height="140" rx="24" fill="#27272A"/>
  <rect x="456" y="340" width="568" height="276" rx="24" fill="#27272A"/>
  <rect x="216" y="232" width="168" height="16" rx="8" fill="#06B6D4"/>
  <rect x="216" y="270" width="132" height="12" rx="6" fill="#52525B"/>
  <rect x="216" y="300" width="148" height="12" rx="6" fill="#52525B"/>
  <rect x="216" y="330" width="110" height="12" rx="6" fill="#52525B"/>
  <path d="M520 532L632 438L736 486L846 372L960 420" stroke="#8B5CF6" stroke-width="16" stroke-linecap="round" stroke-linejoin="round"/>
  <circle cx="520" cy="532" r="18" fill="#8B5CF6"/>
  <circle cx="632" cy="438" r="18" fill="#06B6D4"/>
  <circle cx="736" cy="486" r="18" fill="#EC4899"/>
  <circle cx="846" cy="372" r="18" fill="#F59E0B"/>
  <circle cx="960" cy="420" r="18" fill="#06B6D4"/>
  <text x="120" y="708" fill="white" font-family="Arial, Helvetica, sans-serif" font-size="66" font-weight="700">Research</text>
  <text x="120" y="762" fill="#A1A1AA" font-family="Arial, Helvetica, sans-serif" font-size="28">Di Tella Finance Club</text>
</svg>
